<?xml version="1.0" encoding="utf-8"?>
<!-- Generator: Adobe Illustrator 21.1.0, SVG Export Plug-In . SVG Version: 6.00 Build 0)  -->
<svg version="1.1" id="Слой_1" xmlns="http://www.w3.org/2000/svg" xmlns:xlink="http://www.w3.org/1999/xlink" x="0px" y="0px"
	 viewBox="0 0 197.4 57.7" style="enable-background:new 0 0 197.4 57.7;" xml:space="preserve">
<style type="text/css">
	.st0{fill-rule:evenodd;clip-rule:evenodd;fill:#4C68A3;}
</style>
<g>
	<path class="st0" d="M181,29.9c-2.7,0-3.5-3.4-3.5-5.8c0-2.5,0.8-5,3.4-5c2.8,0,3.5,3.6,3.5,6.2C184.5,27.6,183.5,29.9,181,29.9
		L181,29.9z M194.7,19.6l2.6-6.1L185,13.9c-1.4-0.4-3-0.7-4.5-0.7c-6.1,0-12.2,3.9-12.2,11.5c0,5.1,2.9,8.3,6.9,10l-1.6,0.7
		c-0.6,0.3-2.2,0.7-2.2,1.8c0,1.1,1.1,3.1,1.7,3.9c0.9,1.3,1.9,1.8,3.3,1.8c1.6,0,3.1-0.3,4.7-0.3c1.5,0,3.1,0.2,4.1,1.5
		c0.8,0.9,1.4,2,1.5,3.3c0.3,3.8-3.5,4.8-6.3,4.8c-2.2,0-5.4-0.5-5.4-3.7c0-1.6,0.9-2.5,2.2-2.7c-1.3-0.9-2.8-1.1-4.3-1.1
		c-3,0-6,2-6,5.7c0,3.5,3,5.5,5.7,6.3c2.6,0.8,5.7,1,8.4,1c3.3,0,7.5-0.3,10.6-1.8c3.2-1.6,5.9-4.6,5.9-8.8c0-3.3-1.7-6.2-4.2-7.8
		c-2.1-1.3-5-1.8-7.4-1.8l-5,0.3l-1,0.1c-0.4,0-0.9-0.3-0.9-0.8c0-1.2,2.1-1.4,2.9-1.4c2.8,0,6.3-1,8.6-2.9c2.1-1.8,3.7-4.3,3.7-7.5
		c0-2.2-0.8-4.3-2.1-5.7H194.7L194.7,19.6z M159.4,17.8V13h-0.2c-1.1,0.7-2.4,1-3.7,1h-8.1v0.2c2.1,2,2,4,2,7v15.7c0,3.1,0.2,5-2,7
		v0.2h14v-0.2c-2.1-2-2-4-2-7V27c0-1.6-0.2-2.7,0.8-4c1.2-1.5,2.8-2.2,4.6-2.2c1,0,2,0.3,3,0.5v-8l-2.1-0.2
		C162.7,13.2,160.2,14.8,159.4,17.8L159.4,17.8z M134.5,23.6h-8.1c0.3-2.6,1.7-4.8,4.2-4.8C133.4,18.9,134.5,21.1,134.5,23.6
		L134.5,23.6z M142.4,42.9l2.3-7.4c-2.9,1.7-6.5,3.3-9.7,3.3c-5.2,0-8.5-4.1-8.5-9.7h18c-0.2-10.1-4.6-16-13.7-16
		c-8.1,0-14.2,6.6-14.2,15.8c0,4.9,1.6,9.8,5.3,12.8c3.2,2.7,7.7,3.2,11.6,3.2C136.4,45,139.6,44.3,142.4,42.9L142.4,42.9z
		 M93.2,38.6V0H93c-1.3,1-2.6,1-4.2,1h-7.7v0.2c2.1,2.1,1.9,4,2,7v29.9c0,2.2,0.1,3.5-1.4,4.9v0.2c4.1,1,8.4,1.8,12.6,1.8
		c4.6,0,9.2-0.8,12.9-4.1c3.5-3.3,5.3-7.9,5.3-13c0-3.8-1.3-7.9-3.7-10.6c-2.2-2.6-5.7-4.2-8.9-4.2c-0.9,0-1.8,0.1-2.7,0.4L94.6,19
		c5.3,0.3,7.2,4.8,7.2,10.3c0,5.1-1.9,9.6-6.9,9.6C94.4,38.9,93.8,38.8,93.2,38.6L93.2,38.6z M71.4,1h-6.5v0.2
		c2,2.3,1.9,3.8,1.9,7.1v28.6c0,3,0.2,4.9-2,7v0.2h14v-0.2c-2.1-2.1-2-4-2-7V0h-0.2C75,0.7,73.4,1,71.4,1L71.4,1z M52.2,23.6h-8.1
		c0.3-2.6,1.7-4.8,4.2-4.8C51.1,18.9,52.2,21.1,52.2,23.6L52.2,23.6z M60.1,42.9l2.3-7.4c-2.9,1.7-6.5,3.3-9.7,3.3
		c-5.2,0-8.5-4.1-8.5-9.7h18c-0.2-10.1-4.6-16-13.7-16c-8.1,0-14.2,6.6-14.2,15.8c0,4.9,1.6,9.8,5.3,12.8C42.7,44.4,47.1,45,51,45
		C54.1,45,57.3,44.3,60.1,42.9L60.1,42.9z M13.2,37.2V23.4h1.4c4.4,0,6.4,2.2,6.4,7.2c0,3.8-1.5,7.3-5.3,7.3
		C14.7,38,14,37.8,13.2,37.2L13.2,37.2z M13.2,17.5v-10c0.6-0.3,1.1-0.4,1.7-0.4c2.5,0,3.7,2.5,3.7,5c0,2.8-1.4,5.6-4.2,5.6
		C13.9,17.8,13.6,17.7,13.2,17.5L13.2,17.5z M17.3,1H0v0.2c2.8,2,2.4,5.7,2.4,9.1v24.4c0,3.5,0.4,7.1-2.4,9.2v0.2h17
		c4.1,0,7.2-0.1,10.3-3.1c2.7-2.7,4.1-6.1,4.1-10.1c0-5.7-3.4-10.4-8.3-11.2c3.5-1.3,6.1-3.9,6.1-8.3c0-3.4-1.5-6-3.9-8.1
		C22.9,1,20.3,1,17.3,1L17.3,1z"/>
</g>
</svg>
