<?xml version="1.0" encoding="iso-8859-1"?>
<!-- Generator: Adobe Illustrator 18.0.0, SVG Export Plug-In . SVG Version: 6.00 Build 0)  -->
<!DOCTYPE svg PUBLIC "-//W3C//DTD SVG 1.1//EN" "http://www.w3.org/Graphics/SVG/1.1/DTD/svg11.dtd">
<svg xmlns="http://www.w3.org/2000/svg" xmlns:xlink="http://www.w3.org/1999/xlink" version="1.1" id="Capa_1" x="0px" y="0px" viewBox="0 0 230.955 230.955" style="enable-background:new 0 0 230.955 230.955;" xml:space="preserve" width="512px" height="512px">
<g>
	<path d="M148.561,131.668c-2.272,0-4.409,0.885-6.016,2.492c-1.607,1.607-2.493,3.743-2.492,6.016   c-0.001,2.271,0.885,4.408,2.491,6.015c1.607,1.607,3.744,2.493,6.017,2.493c2.271,0,4.408-0.886,6.015-2.492   c1.607-1.607,2.493-3.744,2.493-6.016c0-2.272-0.886-4.409-2.492-6.016C152.97,132.552,150.834,131.668,148.561,131.668z" fill="#4d66a7"/>
	<path d="M88.412,96.796c3.317-3.316,3.317-8.714,0-12.032c-1.606-1.606-3.742-2.491-6.015-2.491c-2.274,0-4.409,0.885-6.016,2.492   c-1.607,1.606-2.492,3.743-2.492,6.016c-0.001,2.273,0.885,4.409,2.491,6.016c1.607,1.607,3.743,2.492,6.017,2.492   C84.67,99.289,86.806,98.404,88.412,96.796z" fill="#4d66a7"/>
	<path d="M228.685,96.788l-17.194-24.48l-6.233-29.842c-0.924-4.422-4.161-8.001-8.468-9.362l-28.914-9.144L145.393,3.603   c-3.341-3.027-8.059-4.018-12.332-2.597l-28.785,9.568L74.118,7.342c-4.485-0.484-8.87,1.487-11.492,5.147L44.958,37.144   l-26.302,15.11c-3.909,2.246-6.307,6.423-6.274,10.931l0.225,30.503L0.964,121.59c-1.657,3.972-1.154,8.517,1.33,12.03   l17.229,24.365l6.229,29.821c0.924,4.422,4.161,8.001,8.468,9.362l28.779,9.101l22.088,20.896c2.359,2.232,5.447,3.42,8.593,3.42   c1.385,0,2.782-0.23,4.132-0.703l29.028-10.173l30.052,3.22c4.49,0.483,8.87-1.487,11.493-5.148l17.666-24.655l26.302-15.107   c3.91-2.245,6.308-6.422,6.274-10.931l-0.225-30.506l11.59-27.8C231.643,104.825,231.148,100.297,228.685,96.788z M58.89,90.781   c0-6.279,2.445-12.183,6.885-16.623c4.44-4.44,10.344-6.885,16.623-6.885c6.278,0,12.182,2.445,16.622,6.885   c9.165,9.167,9.165,24.081,0,33.246c-4.44,4.439-10.344,6.885-16.622,6.885c-6.279,0-12.183-2.445-16.623-6.885   C61.335,102.964,58.89,97.061,58.89,90.781z M87.938,153.74c-1.465,1.464-3.385,2.196-5.304,2.196   c-1.919,0-3.839-0.732-5.304-2.196c-2.929-2.93-2.929-7.678,0-10.607l65.917-65.917c2.93-2.928,7.678-2.928,10.607,0   c2.929,2.93,2.929,7.678,0,10.607L87.938,153.74z M165.183,156.797c-4.438,4.439-10.342,6.886-16.621,6.886   c-6.28,0-12.184-2.446-16.623-6.887c-4.439-4.439-6.885-10.342-6.885-16.621c0-6.28,2.445-12.184,6.886-16.623   c4.439-4.439,10.343-6.885,16.622-6.885c6.28,0,12.183,2.445,16.622,6.886c4.439,4.438,6.886,10.342,6.886,16.622   C172.069,146.455,169.623,152.358,165.183,156.797z" fill="#4d66a7"/>

</svg>
